<?xml version="1.0" encoding="utf-8"?>
<!-- Generator: Adobe Illustrator 22.0.1, SVG Export Plug-In . SVG Version: 6.00 Build 0)  -->
<svg version="1.1" id="Capa_1" xmlns="http://www.w3.org/2000/svg" xmlns:xlink="http://www.w3.org/1999/xlink" x="0px" y="0px"
	 viewBox="0 0 512 512" style="enable-background:new 0 0 512 512;" xml:space="preserve">
<style type="text/css">
	.st0{fill:#2EBFCF;}
</style>
<path class="st0" d="M466.8,67H45.2C20.3,67,0,87.3,0,112.2v288c0,24.9,20.3,45.2,45.2,45.2h421.6c24.9,0,45.2-20.3,45.2-45.2v-288
	C512,87.3,491.7,67,466.8,67z M45.2,97.3h421.6c8.2,0,14.9,6.7,14.9,14.9v29.4H30.3v-29.4C30.3,104,37,97.3,45.2,97.3z M481.7,210.2
	H30.3V172h451.4V210.2z M466.8,415.1H45.2c-8.2,0-14.9-6.7-14.9-14.9V240.5h451.4v159.8C481.7,408.5,475,415.1,466.8,415.1z"/>
<path class="st0" d="M383.1,264.7c-12,0-23.6,3.4-33.6,9.7c-9.7-6.1-21.2-9.7-33.5-9.7c-34.8,0-63.1,28.3-63.1,63.1
	c0,34.8,28.3,63.1,63.1,63.1c12.3,0,23.8-3.6,33.5-9.7c10,6.3,21.5,9.7,33.6,9.7c34.8,0,63.1-28.3,63.1-63.1
	C446.2,293,417.9,264.7,383.1,264.7z M283.3,327.8c0-18.1,14.7-32.8,32.8-32.8s32.8,14.7,32.8,32.8c0,18.1-14.7,32.8-32.8,32.8
	S283.3,345.9,283.3,327.8z M383.1,360.6c-2.5,0-8-0.3-12.7-0.8c5.5-9.4,8.7-20.3,8.7-32c0-11.7-3.2-22.7-8.8-32.1
	c5-0.5,10.4-0.7,12.8-0.7c18.1,0,32.8,14.7,32.8,32.8C415.9,345.9,401.2,360.6,383.1,360.6z"/>
<path class="st0" d="M77.9,314.2h92.6c8.4,0,15.2-6.8,15.2-15.2c0-8.4-6.8-15.2-15.2-15.2H77.9c-8.4,0-15.2,6.8-15.2,15.2
	C62.8,307.4,69.6,314.2,77.9,314.2z"/>
<path class="st0" d="M202,341.4H77.9c-8.4,0-15.2,6.8-15.2,15.2c0,8.4,6.8,15.2,15.2,15.2H202c8.4,0,15.2-6.8,15.2-15.2
	C217.2,348.2,210.4,341.4,202,341.4z"/>
</svg>
