<?xml version="1.0" encoding="utf-8"?>
<!-- Generator: Adobe Illustrator 22.0.1, SVG Export Plug-In . SVG Version: 6.00 Build 0)  -->
<svg version="1.1" id="Capa_1" xmlns="http://www.w3.org/2000/svg" xmlns:xlink="http://www.w3.org/1999/xlink" x="0px" y="0px"
	 viewBox="0 0 512 512" style="enable-background:new 0 0 512 512;" xml:space="preserve">
<style type="text/css">
	.st0{fill:#E4DA39;}
</style>
<path class="st0" d="M466.8,67H45.2C20.3,67,0,87.3,0,112.2v288c0,24.9,20.3,45.2,45.2,45.2h421.6c24.9,0,45.2-20.3,45.2-45.2v-288
	C512,87.3,491.7,67,466.8,67z M45.2,97.3h421.6c8.2,0,14.9,6.7,14.9,14.9v29.4H30.3v-29.4C30.3,104,37,97.3,45.2,97.3z M481.7,210.2
	H30.3V172h451.4V210.2z M466.8,415.1H45.2c-8.2,0-14.9-6.7-14.9-14.9V240.5h451.4v159.8C481.7,408.5,475,415.1,466.8,415.1z"/>
<path class="st0" d="M114.2,344.7H77.3c-8.3,0-15,6.7-15,15c0,8.3,6.7,15,15,15h36.9c8.3,0,15-6.7,15-15
	C129.2,351.5,122.5,344.7,114.2,344.7z"/>
<path class="st0" d="M202.9,344.7h-36.9c-8.3,0-15,6.7-15,15c0,8.3,6.7,15,15,15h36.9c8.3,0,15-6.7,15-15
	C217.9,351.5,211.1,344.7,202.9,344.7z"/>
<path class="st0" d="M434.7,299.1h-65.9c-8.3,0-15,6.7-15,15v45c0,8.3,6.7,15,15,15h65.9c8.3,0,15-6.7,15-15v-45
	C449.7,305.8,443,299.1,434.7,299.1z M419.7,344.1h-35.9v-15h35.9V344.1z"/>
</svg>
