<?xml version="1.0" encoding="utf-8"?>
<!-- Generator: Adobe Illustrator 22.0.1, SVG Export Plug-In . SVG Version: 6.00 Build 0)  -->
<svg version="1.1" id="Capa_1" xmlns="http://www.w3.org/2000/svg" xmlns:xlink="http://www.w3.org/1999/xlink" x="0px" y="0px"
	 viewBox="0 0 512 512" style="enable-background:new 0 0 512 512;" xml:space="preserve">
<style type="text/css">
	.st0{fill:#2EBFCF;}
</style>
<path class="st0" d="M456.5,314.6L430,155.7c6.8-1.4,12-7.4,12-14.7V61c0-8.3-6.7-15-15-15h-60c-25.1,0-46.4,16.9-52.9,40H287
	c-8.3,0-15,6.7-15,15s6.7,15,15,15h27.1c4.8,17.1,17.7,30.8,34.3,36.8l27.1,162.8c-27.4,13.3-47.4,39.4-52.4,70.5H290V281
	c0-12.1-3.9-23.2-10.5-32.3c12.3-8,20.5-21.9,20.5-37.7c0-24.8-20.2-45-45-45h-90c-9,0-17.5,2.2-25,6v-41c0-8.3-6.7-15-15-15H15
	c-8.3,0-15,6.7-15,15v110c0,8.3,6.7,15,15,15h75.2C59.6,280.8,40,318.6,40,361v40c0,8.3,6.7,15,15,15h26.8c6.8,28.6,32.6,50,63.2,50
	s56.4-21.4,63.2-50h145.5c6.8,28.6,32.6,50,63.2,50s56.4-21.4,63.2-50H497c8.3,0,15-6.7,15-15C512,362.7,489.2,329.6,456.5,314.6z
	 M367,76h45v50h-45c-1.1,0-2.2-0.1-3.3-0.2c-0.1,0-0.1,0-0.2,0C351.4,124,342,113.6,342,101C342,87.2,353.2,76,367,76z M379.4,156
	h20.3l25.1,150.3c-2.5-0.2-5.1-0.3-7.7-0.3c-4.2,0-8.4,0.3-12.5,0.8L379.4,156z M417,336c30.7,0,56.5,21.4,63.3,50H353.7
	C360.5,357.4,386.3,336,417,336z M165,196h90c8.3,0,15,6.7,15,15s-6.7,15-15,15H140v-5C140,207.2,151.2,196,165,196z M30,146h80v80
	H30V146z M70,361c0-57.9,47.1-105,105-105h60c13.8,0,25,11.2,25,25v105H70V361z M145,436c-13.9,0-26-8.2-31.6-20h63.2
	C171,427.8,158.9,436,145,436z M417,436c-13.9,0-26-8.2-31.6-20h63.2C443,427.8,430.9,436,417,436z"/>
</svg>
