<?xml version="1.0" encoding="utf-8"?>
<!-- Generator: Adobe Illustrator 22.0.1, SVG Export Plug-In . SVG Version: 6.00 Build 0)  -->
<svg version="1.1" id="Capa_1" xmlns="http://www.w3.org/2000/svg" xmlns:xlink="http://www.w3.org/1999/xlink" x="0px" y="0px"
	 viewBox="0 0 512 512" style="enable-background:new 0 0 512 512;" xml:space="preserve">
<style type="text/css">
	.st0{fill:#2EBFCF;}
</style>
<g>
	<g>
		<path class="st0" d="M413.5,0H98.5c-8.2,0-14.8,6.6-14.8,14.8v482.5c0,5.6,3.2,10.7,8.2,13.2c5,2.5,11,2,15.5-1.4l49.4-37
			l40.2,36.2c5.6,5.1,14.1,5.1,19.8,0l39.4-35.4l39.4,35.4c5.6,5.1,14.1,5.1,19.8,0l40.2-36.2l49.4,37c2.6,2,5.7,3,8.9,3
			c2.3,0,4.5-0.5,6.6-1.6c5-2.5,8.2-7.6,8.2-13.2V14.8C428.3,6.6,421.7,0,413.5,0z M398.8,467.7l-35.4-26.6
			c-5.6-4.2-13.5-3.9-18.7,0.8l-39.4,35.4l-39.4-35.4c-2.8-2.5-6.3-3.8-9.9-3.8s-7.1,1.3-9.9,3.8l-39.4,35.4l-39.4-35.4
			c-5.2-4.7-13.1-5.1-18.7-0.8l-35.4,26.6V29.5h285.5V467.7z"/>
	</g>
</g>
<g>
	<g>
		<path class="st0" d="M275.7,211.7h-39.4c-13.6,0-24.6-11-24.6-24.6v-19.7c0-13.6,11-24.6,24.6-24.6h39.4c13.6,0,24.6,11,24.6,24.6
			c0,8.2,6.6,14.8,14.8,14.8s14.8-6.6,14.8-14.8c0-29.9-24.3-54.2-54.2-54.2h-4.9V88.6c0-8.2-6.6-14.8-14.8-14.8
			s-14.8,6.6-14.8,14.8v24.6h-4.9c-29.9,0-54.2,24.3-54.2,54.2v19.7c0,29.9,24.3,54.2,54.2,54.2h39.4c13.6,0,24.6,11,24.6,24.6v19.7
			c0,13.6-11,24.6-24.6,24.6h-39.4c-13.6,0-24.6-11-24.6-24.6c0-8.2-6.6-14.8-14.8-14.8s-14.8,6.6-14.8,14.8
			c0,29.9,24.3,54.2,54.2,54.2h4.9v24.6c0,8.2,6.6,14.8,14.8,14.8s14.8-6.6,14.8-14.8v-24.6h4.9c29.9,0,54.2-24.3,54.2-54.2v-19.7
			C329.8,236,305.6,211.7,275.7,211.7z"/>
	</g>
</g>
</svg>
