<?xml version="1.0" encoding="utf-8"?>
<!-- Generator: Adobe Illustrator 22.0.1, SVG Export Plug-In . SVG Version: 6.00 Build 0)  -->
<svg version="1.1" id="Capa_1" xmlns="http://www.w3.org/2000/svg" xmlns:xlink="http://www.w3.org/1999/xlink" x="0px" y="0px"
	 viewBox="0 0 512 512" style="enable-background:new 0 0 512 512;" xml:space="preserve">
<style type="text/css">
	.st0{fill:#2EBFCF;}
</style>
<g>
	<g>
		<path class="st0" d="M413.5,0h-315c-8.2,0-14.8,6.6-14.8,14.8v482.5c0,5.6,3.2,10.7,8.2,13.2s11,2,15.5-1.4l49.4-37l40.2,36.2
			c5.6,5.1,14.1,5.1,19.8,0l39.4-35.4l39.4,35.4c5.6,5.1,14.1,5.1,19.8,0l40.2-36.2l49.4,37c2.6,2,5.7,3,8.9,3
			c2.3,0,4.5-0.5,6.6-1.6c5-2.5,8.2-7.6,8.2-13.2V14.8C428.3,6.6,421.7,0,413.5,0z M398.8,467.7l-35.4-26.6
			c-5.6-4.2-13.5-3.9-18.7,0.8l-39.4,35.4l-39.4-35.4c-2.8-2.5-6.3-3.8-9.9-3.8s-7.1,1.3-9.9,3.8l-39.4,35.4l-39.4-35.4
			c-5.2-4.7-13.1-5.1-18.7-0.8l-35.4,26.6V29.5h285.5L398.8,467.7L398.8,467.7z"/>
	</g>
</g>
<path class="st0" d="M160.8,262.3c-8.1,0-14.6,6.6-14.6,14.6c0,8.1,6.6,14.6,14.6,14.6h28.8l-6.8,51.8c0,8.1,6.6,14.6,14.6,14.6
	s14.6-6.6,14.6-14.6l6.8-51.8h58.6l-6.8,51.8c0,8.1,6.6,14.6,14.6,14.6s14.6-6.6,14.6-14.6l6.8-51.8h29.8c8.1,0,14.6-6.6,14.6-14.6
	c0-8.1-6.6-14.6-14.6-14.6h-25.9l7.8-58.6h32.7c8.1,0,14.6-6.6,14.6-14.6c0-8.1-6.6-14.6-14.6-14.6h-28.8l6.8-51.8
	c0-8.1-6.6-14.6-14.6-14.6s-14.6,6.6-14.6,14.6l-6.8,51.8h-58.6l6.8-51.8c0-8.1-6.6-14.6-14.6-14.6s-14.6,6.6-14.6,14.6l-6.8,51.8
	h-29.8c-8.1,0-14.6,6.6-14.6,14.6c0,8.1,6.6,14.6,14.6,14.6h25.9l-7.8,58.6H160.8z M230.6,203.7h58.6l-7.8,58.6h-58.6L230.6,203.7z"
	/>
</svg>
