<?xml version="1.0" encoding="utf-8"?>
<!-- Generator: Adobe Illustrator 22.0.1, SVG Export Plug-In . SVG Version: 6.00 Build 0)  -->
<svg version="1.1" id="Capa_1" xmlns="http://www.w3.org/2000/svg" xmlns:xlink="http://www.w3.org/1999/xlink" x="0px" y="0px"
	 viewBox="0 0 512 512" style="enable-background:new 0 0 512 512;" xml:space="preserve">
<style type="text/css">
	.st0{fill:#34C78D;}
</style>
<path class="st0" d="M256,0C114.8,0,0,114.9,0,256c0,141.2,114.8,256,256,256c141.2,0,256-114.8,256-256C512,114.9,397.1,0,256,0z
	 M256,483.5C130.5,483.5,28.5,381.5,28.5,256C28.5,130.6,130.5,28.5,256,28.5c125.4,0,227.5,102.1,227.5,227.5
	C483.5,381.5,381.4,483.5,256,483.5z"/>
<path class="st0" d="M283.4,288.6l4.2-6.8H401c5.5,0,10-4.5,10-10c0-5.5-4.5-10-10-10H287.6l-4.2-6.8c-2.7-4.3-6.4-8-10.7-10.7
	l-6.8-4.2V105.5c0-5.5-4.5-10-10-10c-5.5,0-10,4.5-10,10v134.8l-6.8,4.2c-9.6,5.9-15.4,16.2-15.4,27.4c0,17.7,14.4,32.2,32.2,32.2
	C267.2,304,277.5,298.2,283.4,288.6z"/>
</svg>
