<?xml version="1.0" encoding="utf-8"?>
<!-- Generator: Adobe Illustrator 22.0.1, SVG Export Plug-In . SVG Version: 6.00 Build 0)  -->
<svg version="1.1" id="Capa_1" xmlns="http://www.w3.org/2000/svg" xmlns:xlink="http://www.w3.org/1999/xlink" x="0px" y="0px"
	 viewBox="0 0 512 512" style="enable-background:new 0 0 512 512;" xml:space="preserve">
<style type="text/css">
	.st0{fill:#E16366;}
</style>
<g>
	<g>
		<path class="st0" d="M497,96.4H15c-8.3,0-15,6.7-15,15v192.8c0,0,0,0,0,0c0,0,0,0,0,0v96.4c0,8.3,6.7,15,15,15h482
			c8.3,0,15-6.7,15-15V111.4C512,103.1,505.3,96.4,497,96.4z M30,126.4h65c-6.2,32.9-32.1,58.8-65,65C30,191.4,30,126.4,30,126.4z
			 M30,385.6v-65c32.9,6.2,58.8,32.1,65,65H30z M482,385.6h-65c6.2-32.9,32.1-58.8,65-65V385.6z M482,290.2
			c-49.5,6.7-88.7,45.9-95.4,95.4H125.4c-6.7-49.4-45.9-88.7-95.4-95.4v-68.4c49.4-6.7,88.7-45.9,95.4-95.4h261.2
			c6.7,49.4,45.9,88.7,95.4,95.4V290.2z M482,191.4c-32.9-6.2-58.8-32.1-65-65h65V191.4z"/>
	</g>
</g>
<g>
	<g>
		<path class="st0" d="M256,192.8c-34.8,0-63.2,28.4-63.2,63.2s28.4,63.2,63.2,63.2s63.2-28.4,63.2-63.2S290.9,192.8,256,192.8z
			 M256,289.2c-18.3,0-33.2-14.9-33.2-33.2c0-18.3,14.9-33.2,33.2-33.2s33.2,14.9,33.2,33.2C289.2,274.3,274.3,289.2,256,289.2z"/>
	</g>
</g>
<g>
	<g>
		<path class="st0" d="M138.1,245.4c-2.8-2.8-6.6-4.4-10.6-4.4s-7.8,1.6-10.6,4.4s-4.4,6.7-4.4,10.6c0,4,1.6,7.8,4.4,10.6
			c2.8,2.8,6.7,4.4,10.6,4.4s7.8-1.6,10.6-4.4c2.8-2.8,4.4-6.7,4.4-10.6C142.5,252.1,140.9,248.2,138.1,245.4z"/>
	</g>
</g>
<g>
	<g>
		<path class="st0" d="M395.1,245.4c-2.8-2.8-6.7-4.4-10.6-4.4c-4,0-7.8,1.6-10.6,4.4c-2.8,2.8-4.4,6.7-4.4,10.6
			c0,4,1.6,7.8,4.4,10.6c2.8,2.8,6.7,4.4,10.6,4.4c3.9,0,7.8-1.6,10.6-4.4s4.4-6.7,4.4-10.6C399.5,252.1,397.9,248.2,395.1,245.4z"
			/>
	</g>
</g>
</svg>
